<?xml version="1.0" encoding="utf-8"?>
<!-- Generator: Adobe Illustrator 24.1.0, SVG Export Plug-In . SVG Version: 6.00 Build 0)  -->
<svg version="1.1" xmlns="http://www.w3.org/2000/svg" xmlns:xlink="http://www.w3.org/1999/xlink" x="0px" y="0px"
	 viewBox="0 0 95.5 28" style="enable-background:new 0 0 95.5 28;" xml:space="preserve">
<style type="text/css">
	.st0{display:none;}
	.st1{display:inline;}
	.st2{fill:#100000;}
	.st3{enable-background:new    ;}
	.st4{fill:none;}
	.st5{fill:#FFFFFF;}
	.st6{display:none;fill:#FFFFFF;}
	.st7{fill:#1C2122;}
	.st8{fill:#67BECE;}
	.st9{fill:#3F54A3;}
	.st10{fill:#F9C7C5;}
</style>
<g id="GitHub" class="st0">
	<g shape-rendering="crispEdges" class="st1">
		<rect class="st2" width="95.5" height="28"/>
	</g>
	<g text-rendering="geometricPrecision" class="st1">
		<g class="st3">
			<rect x="35.5" y="8.9" class="st4" width="51.5" height="11.7"/>
			<path class="st5" d="M42.9,17.1c-0.3,0.1-0.8,0.3-1.3,0.4c-0.5,0.1-1.1,0.2-1.6,0.2c-1.2,0-2.2-0.3-2.9-1c-0.7-0.7-1-1.6-1-2.8
				c0-1.1,0.4-2,1.1-2.7s1.7-1,3-1c0.5,0,0.9,0,1.4,0.1s0.9,0.3,1.4,0.5v1.7h-0.2c-0.1-0.1-0.2-0.2-0.4-0.3s-0.3-0.2-0.5-0.3
				c-0.2-0.1-0.4-0.2-0.7-0.3s-0.5-0.1-0.8-0.1c-0.3,0-0.6,0-0.9,0.1s-0.5,0.2-0.7,0.4c-0.2,0.2-0.4,0.4-0.5,0.7s-0.2,0.6-0.2,1
				c0,0.8,0.2,1.4,0.6,1.8s1.1,0.6,1.9,0.6c0.1,0,0.2,0,0.2,0s0.2,0,0.2,0v-1.4h-1.5v-1.4h3.4V17.1z"/>
			<path class="st5" d="M49.9,17.5h-4.3v-1.3h1.2v-4.7h-1.2v-1.3h4.3v1.3h-1.2v4.7h1.2V17.5z"/>
			<path class="st5" d="M58.5,11.6h-2.3v5.9h-1.9v-5.9h-2.3v-1.4h6.4V11.6z"/>
			<path class="st5" d="M67.5,17.5h-1.9v-3.2h-2.8v3.2H61v-7.3h1.9v2.7h2.8v-2.7h1.9V17.5z"/>
			<path class="st5" d="M77.2,14.9c0,0.9-0.3,1.6-0.8,2.1s-1.4,0.7-2.4,0.7s-1.9-0.2-2.4-0.7s-0.8-1.2-0.8-2.1v-4.6h1.9v4.5
				c0,0.5,0.1,0.9,0.3,1.1c0.2,0.2,0.6,0.4,1,0.4c0.5,0,0.8-0.1,1-0.4s0.3-0.6,0.3-1.1v-4.5h1.9V14.9z"/>
			<path class="st5" d="M86.5,15.3c0,0.4-0.1,0.7-0.2,0.9s-0.3,0.5-0.6,0.7c-0.3,0.2-0.6,0.4-0.9,0.5s-0.8,0.1-1.3,0.1h-3.2v-7.3
				h2.8c0.6,0,1,0,1.3,0.1s0.5,0.1,0.8,0.3c0.3,0.1,0.5,0.3,0.6,0.6s0.2,0.5,0.2,0.8c0,0.4-0.1,0.7-0.3,0.9s-0.4,0.5-0.8,0.6v0
				c0.5,0.1,0.9,0.3,1.1,0.6S86.5,14.8,86.5,15.3z M84.1,12.3c0-0.1,0-0.2-0.1-0.4s-0.2-0.2-0.3-0.3c-0.1-0.1-0.3-0.1-0.5-0.1
				s-0.5,0-0.9,0h-0.2v1.5h0.3c0.3,0,0.5,0,0.8,0c0.2,0,0.4,0,0.5-0.1c0.2-0.1,0.3-0.2,0.3-0.3C84.1,12.6,84.1,12.4,84.1,12.3z
				 M84.6,15.2c0-0.2,0-0.4-0.1-0.5s-0.2-0.2-0.5-0.3c-0.1,0-0.3-0.1-0.6-0.1s-0.5,0-0.8,0h-0.4v1.8h0.1c0.5,0,0.9,0,1.1,0
				s0.4,0,0.6-0.1c0.2-0.1,0.3-0.2,0.4-0.3C84.5,15.6,84.6,15.4,84.6,15.2z"/>
		</g>
	</g>
	<g class="st1">
		<path class="st6" d="M28.7,24.8c-7.2,0-14.4,0-21.5,0c0-7.2,0-14.4,0-21.5c7.2,0,14.4,0,21.5,0C28.7,10.4,28.7,17.6,28.7,24.8z
			 M19.4,17.8c0.4,0.4,0.5,1,0.5,1.6c0,0.7,0,1.3,0,2c0,0.5,0.2,0.6,0.7,0.5c3.8-1.3,6-5.2,5.2-9.2c-0.8-4.4-5-7.2-9.3-6.5
			c-3.7,0.7-6.5,3.9-6.6,7.7c-0.1,2.9,1.1,5.3,3.5,7c0.6,0.4,1.3,0.8,2,1c0.3,0.1,0.6,0,0.6-0.3c0-0.5,0-1,0-1.5
			c-0.2,0-0.4,0.1-0.6,0.1c-1,0.1-1.9-0.3-2.2-1.2c-0.1-0.4-0.4-0.8-0.8-1c-0.1,0-0.1-0.1-0.2-0.1c-0.2-0.2-0.1-0.3,0.1-0.3
			c0.1,0,0.2,0,0.3,0c0.5,0.1,0.9,0.4,1.1,0.8c0.5,0.8,1.3,1.1,2.2,0.7c0.1,0,0.1-0.1,0.1-0.1c0.1-0.4,0.2-0.7,0.5-1
			c-0.3,0-0.5-0.1-0.7-0.1c-0.8-0.2-1.6-0.5-2.1-1.2c-0.4-0.5-0.6-1.2-0.7-1.9c-0.1-1.1,0-2.1,0.7-2.9c0,0,0-0.1,0-0.2
			c-0.2-0.6-0.1-1.2,0-1.8c0.1-0.3,0.1-0.3,0.5-0.3c0.6,0.1,1.2,0.4,1.7,0.7c0.1,0,0.2,0.1,0.3,0c1.2-0.3,2.5-0.3,3.7,0
			c0.1,0,0.2,0,0.3,0c0.4-0.2,0.7-0.4,1.1-0.6c0.2-0.1,0.5-0.1,0.8-0.2c0.1,0,0.2,0.1,0.2,0.1c0.2,0.6,0.3,1.2,0.1,1.9
			c0,0.1,0,0.2,0.1,0.3c0.3,0.3,0.5,0.7,0.6,1.1c0.2,0.7,0.2,1.4,0.1,2.1c-0.2,1.4-1,2.3-2.3,2.7C20.3,17.7,19.9,17.7,19.4,17.8z"/>
		<path class="st5" d="M19.4,17.8c0.4-0.1,0.8-0.2,1.2-0.3c1.3-0.4,2.1-1.3,2.3-2.7c0.1-0.7,0.1-1.4-0.1-2.1
			c-0.1-0.4-0.3-0.7-0.6-1.1c-0.1-0.1-0.1-0.2-0.1-0.3c0.2-0.6,0.1-1.3-0.1-1.9c0-0.1-0.1-0.1-0.2-0.1c-0.3,0-0.6,0.1-0.8,0.2
			c-0.4,0.2-0.8,0.4-1.1,0.6c-0.1,0-0.2,0.1-0.3,0c-1.2-0.3-2.5-0.3-3.7,0c-0.1,0-0.2,0-0.3,0c-0.5-0.3-1.1-0.6-1.7-0.7
			c-0.3-0.1-0.4,0-0.5,0.3c-0.2,0.6-0.2,1.2,0,1.8c0,0.1,0,0.1,0,0.2c-0.7,0.9-0.8,1.9-0.7,2.9c0.1,0.7,0.3,1.3,0.7,1.9
			c0.6,0.7,1.3,1,2.1,1.2c0.2,0,0.5,0.1,0.7,0.1c-0.3,0.3-0.4,0.6-0.5,1c0,0.1-0.1,0.1-0.1,0.1c-0.9,0.4-1.7,0.1-2.2-0.7
			c-0.3-0.4-0.6-0.7-1.1-0.8c-0.1,0-0.2,0-0.3,0c-0.2,0-0.2,0.2-0.1,0.3c0.1,0.1,0.1,0.1,0.2,0.1c0.4,0.2,0.7,0.6,0.8,1
			c0.3,0.9,1.2,1.3,2.2,1.2c0.2,0,0.4,0,0.6-0.1c0,0.5,0,1,0,1.5c0,0.3-0.3,0.4-0.6,0.3c-0.7-0.2-1.4-0.6-2-1
			c-2.4-1.7-3.6-4.1-3.5-7c0.1-3.8,2.9-7,6.6-7.7c4.3-0.8,8.5,2.1,9.3,6.5c0.8,4-1.5,7.9-5.2,9.2c-0.5,0.2-0.7,0-0.7-0.5
			c0-0.7,0-1.3,0-2C19.9,18.8,19.8,18.3,19.4,17.8z"/>
	</g>
</g>
<g id="Capa_2">
	<rect class="st5" width="95.5" height="28"/>
	<g>
		<g>
			<path class="st7" d="M25,10.1c0,0-0.1,0-0.1,0h-3.3c0,0,0,0,0,0v2c0,0,0,0,0,0h2.2c0,0,0.1,0,0.1,0c0,0,0,0.1,0,0.1v0.5
				c0,0,0,0.1,0,0.1c0,0-0.1,0-0.1,0h-2.2c0,0,0,0,0,0v2.7c0,0,0,0.1,0,0.1c0,0-0.1,0-0.1,0h-0.6c0,0-0.1,0-0.1,0c0,0,0-0.1,0-0.1
				V9.5c0,0,0-0.1,0-0.1c0,0,0.1,0,0.1,0h4.1c0,0,0.1,0,0.1,0c0,0,0,0.1,0,0.1V10C25,10,25,10.1,25,10.1z M28.6,11.2
				c0.1,0,0.1,0.1,0.1,0.2L28.5,12c0,0.1,0,0.1-0.1,0.1c0,0-0.1,0-0.1,0c-0.1,0-0.2,0-0.3,0c0,0-0.1,0-0.1,0c-0.3,0-0.5,0.1-0.7,0.3
				c-0.2,0.2-0.3,0.4-0.3,0.8v2.7c0,0,0,0.1,0,0.1c0,0-0.1,0-0.1,0h-0.6c0,0-0.1,0-0.1,0c0,0,0-0.1,0-0.1v-4.5c0,0,0-0.1,0-0.1
				c0,0,0.1,0,0.1,0h0.6c0,0,0.1,0,0.1,0c0,0,0,0.1,0,0.1v0.4c0,0,0,0,0,0c0,0,0,0,0,0c0.3-0.4,0.7-0.6,1.2-0.6
				C28.2,11.1,28.4,11.1,28.6,11.2z M30.4,15.7c-0.3-0.2-0.6-0.6-0.7-1c-0.1-0.3-0.2-0.7-0.2-1.2c0-0.4,0.1-0.8,0.2-1.1
				c0.1-0.4,0.4-0.7,0.7-1c0.3-0.2,0.8-0.4,1.2-0.4c0.5,0,0.8,0.1,1.2,0.4c0.3,0.2,0.6,0.6,0.7,1c0.1,0.3,0.2,0.7,0.2,1.1
				c0,0.4-0.1,0.8-0.2,1.2c-0.1,0.4-0.4,0.8-0.7,1C32.4,15.9,32,16,31.6,16C31.1,16,30.7,15.9,30.4,15.7z M32.2,15
				c0.2-0.1,0.3-0.3,0.4-0.6c0.1-0.2,0.1-0.5,0.1-0.9c0-0.4,0-0.6-0.1-0.9c-0.1-0.3-0.2-0.5-0.4-0.6c-0.2-0.1-0.4-0.2-0.7-0.2
				c-0.3,0-0.5,0.1-0.7,0.2c-0.2,0.1-0.3,0.3-0.4,0.6c-0.1,0.2-0.1,0.5-0.1,0.9c0,0.4,0,0.7,0.1,0.9c0.1,0.3,0.2,0.5,0.4,0.6
				c0.2,0.1,0.4,0.2,0.7,0.2C31.8,15.3,32,15.2,32.2,15z M38.5,11.5c0.3,0.3,0.5,0.7,0.5,1.2v3.1c0,0,0,0.1,0,0.1c0,0-0.1,0-0.1,0
				h-0.6c0,0-0.1,0-0.1,0c0,0,0-0.1,0-0.1v-2.9c0-0.3-0.1-0.6-0.3-0.8c-0.2-0.2-0.4-0.3-0.7-0.3c-0.3,0-0.5,0.1-0.7,0.2
				c-0.2,0.2-0.3,0.4-0.3,0.6v3.1c0,0,0,0.1,0,0.1c0,0-0.1,0-0.1,0h-0.6c0,0-0.1,0-0.1,0c0,0,0-0.1,0-0.1v-4.5c0,0,0-0.1,0-0.1
				c0,0,0.1,0,0.1,0h0.6c0,0,0.1,0,0.1,0c0,0,0,0.1,0,0.1v0.3c0,0,0,0,0,0c0,0,0,0,0,0c0.3-0.3,0.7-0.5,1.2-0.5
				C37.7,11.1,38.2,11.2,38.5,11.5z M42.8,11.9c0,0-0.1,0-0.1,0h-1c0,0,0,0,0,0v2.5c0,0.3,0.1,0.5,0.2,0.6c0.1,0.1,0.3,0.2,0.6,0.2
				h0.2c0,0,0.1,0,0.1,0c0,0,0,0.1,0,0.1v0.5c0,0.1,0,0.1-0.1,0.2l-0.4,0c-0.5,0-0.8-0.1-1.1-0.3c-0.2-0.2-0.4-0.5-0.4-1v-2.8
				c0,0,0,0,0,0h-0.5c0,0-0.1,0-0.1,0c0,0,0-0.1,0-0.1v-0.5c0,0,0-0.1,0-0.1c0,0,0.1,0,0.1,0h0.5c0,0,0,0,0,0V10c0,0,0-0.1,0-0.1
				c0,0,0.1,0,0.1,0h0.6c0,0,0.1,0,0.1,0c0,0,0,0.1,0,0.1v1.1c0,0,0,0,0,0h1c0,0,0.1,0,0.1,0c0,0,0,0.1,0,0.1v0.5
				C42.8,11.8,42.8,11.8,42.8,11.9z M47.2,14.7c0-0.1,0.1-0.1,0.1-0.1c0,0,0.1,0,0.1,0l0.4,0.2c0.1,0,0.1,0.1,0.1,0.1l0,0.1
				c-0.2,0.3-0.4,0.6-0.7,0.7C46.8,16,46.4,16,46,16c-0.4,0-0.8-0.1-1.1-0.3c-0.3-0.2-0.5-0.5-0.7-0.9c-0.2-0.4-0.2-0.8-0.2-1.4
				c0-0.5,0-0.8,0.1-1c0.1-0.4,0.3-0.8,0.7-1c0.3-0.3,0.8-0.4,1.2-0.4c0.6,0,1.1,0.2,1.4,0.5c0.3,0.3,0.5,0.8,0.6,1.4
				c0,0.2,0.1,0.5,0.1,0.9c0,0.1,0,0.1-0.1,0.1h-3c0,0,0,0,0,0c0,0.2,0,0.4,0.1,0.5c0.1,0.3,0.2,0.5,0.4,0.6
				c0.2,0.1,0.5,0.2,0.8,0.2C46.6,15.3,46.9,15.1,47.2,14.7L47.2,14.7z M45.3,12.1c-0.2,0.1-0.3,0.3-0.4,0.5c0,0.2-0.1,0.3-0.1,0.5
				c0,0,0,0,0,0H47c0,0,0,0,0,0c0-0.2,0-0.4-0.1-0.5c-0.1-0.2-0.2-0.4-0.4-0.6c-0.2-0.1-0.4-0.2-0.7-0.2
				C45.7,11.9,45.4,11.9,45.3,12.1z M52.7,11.5c0.3,0.3,0.5,0.7,0.5,1.2v3.1c0,0,0,0.1,0,0.1c0,0-0.1,0-0.1,0h-0.6c0,0-0.1,0-0.1,0
				c0,0,0-0.1,0-0.1v-2.9c0-0.3-0.1-0.6-0.3-0.8c-0.2-0.2-0.4-0.3-0.7-0.3c-0.3,0-0.5,0.1-0.7,0.2c-0.2,0.2-0.3,0.4-0.3,0.6v3.1
				c0,0,0,0.1,0,0.1c0,0-0.1,0-0.1,0h-0.6c0,0-0.1,0-0.1,0c0,0,0-0.1,0-0.1v-4.5c0,0,0-0.1,0-0.1c0,0,0.1,0,0.1,0h0.6
				c0,0,0.1,0,0.1,0c0,0,0,0.1,0,0.1v0.3c0,0,0,0,0,0c0,0,0,0,0,0c0.3-0.3,0.7-0.5,1.2-0.5C52,11.1,52.4,11.2,52.7,11.5z M57.7,9.4
				c0,0,0.1,0,0.1,0h0.6c0,0,0.1,0,0.1,0c0,0,0,0.1,0,0.1v6.3c0,0,0,0.1,0,0.1c0,0-0.1,0-0.1,0h-0.6c0,0-0.1,0-0.1,0
				c0,0,0-0.1,0-0.1v-0.2c0,0,0,0,0,0c0,0,0,0,0,0c-0.1,0.2-0.3,0.3-0.5,0.4C56.9,16,56.7,16,56.5,16c-0.5,0-0.8-0.1-1.1-0.3
				c-0.3-0.2-0.5-0.5-0.7-0.9c-0.1-0.3-0.2-0.7-0.2-1.2c0-0.5,0-0.8,0.1-1.1c0.1-0.4,0.4-0.7,0.7-1c0.3-0.2,0.7-0.3,1.2-0.3
				c0.2,0,0.4,0,0.6,0.1c0.2,0.1,0.3,0.2,0.5,0.4c0,0,0,0,0,0c0,0,0,0,0,0v-2C57.7,9.4,57.7,9.4,57.7,9.4z M57.6,13.6
				c0-0.5-0.1-0.9-0.2-1.2c-0.2-0.3-0.5-0.5-0.8-0.5c-0.4,0-0.6,0.2-0.8,0.5c-0.2,0.3-0.3,0.7-0.3,1.2c0,0.5,0.1,0.9,0.2,1.2
				c0.2,0.3,0.5,0.5,0.9,0.5c0.4,0,0.6-0.2,0.8-0.5C57.6,14.5,57.6,14.1,57.6,13.6z M62.4,15.9c0,0,0-0.1,0-0.1V9.5c0,0,0-0.1,0-0.1
				c0,0,0.1,0,0.1,0h0.6c0.1,0,0.1,0,0.2,0.1l1.6,2.5c0,0,0,0,0.1,0l1.6-2.5c0-0.1,0.1-0.1,0.2-0.1h0.6c0,0,0.1,0,0.1,0
				c0,0,0,0.1,0,0.1v6.3c0,0,0,0.1,0,0.1c0,0-0.1,0-0.1,0h-0.6c0,0-0.1,0-0.1,0c0,0,0-0.1,0-0.1V11c0,0,0,0,0,0c0,0,0,0,0,0
				l-1.3,2.1c0,0.1-0.1,0.1-0.2,0.1h-0.3c-0.1,0-0.1,0-0.2-0.1L63.3,11c0,0,0,0,0,0c0,0,0,0,0,0v4.8c0,0,0,0.1,0,0.1
				c0,0-0.1,0-0.1,0h-0.6C62.5,16,62.4,16,62.4,15.9z M72.3,14.7c0-0.1,0.1-0.1,0.1-0.1c0,0,0.1,0,0.1,0l0.4,0.2
				c0.1,0,0.1,0.1,0.1,0.1l0,0.1c-0.2,0.3-0.4,0.6-0.7,0.7C71.9,16,71.5,16,71.1,16c-0.4,0-0.8-0.1-1.1-0.3
				c-0.3-0.2-0.5-0.5-0.7-0.9c-0.2-0.4-0.2-0.8-0.2-1.4c0-0.5,0-0.8,0.1-1c0.1-0.4,0.3-0.8,0.7-1c0.3-0.3,0.8-0.4,1.2-0.4
				c0.6,0,1.1,0.2,1.4,0.5c0.3,0.3,0.5,0.8,0.6,1.4c0,0.3,0.1,0.6,0.1,0.9c0,0.1,0,0.1-0.1,0.1h-3c0,0,0,0,0,0c0,0.2,0,0.4,0.1,0.5
				c0.1,0.3,0.2,0.5,0.4,0.6c0.2,0.1,0.5,0.2,0.8,0.2C71.7,15.3,72.1,15.1,72.3,14.7L72.3,14.7z M70.4,12.1
				c-0.2,0.1-0.3,0.3-0.4,0.5c0,0.2-0.1,0.3-0.1,0.5c0,0,0,0,0,0h2.1c0,0,0,0,0,0c0-0.2,0-0.4-0.1-0.5c-0.1-0.2-0.2-0.4-0.4-0.6
				c-0.2-0.1-0.4-0.2-0.7-0.2S70.6,11.9,70.4,12.1L70.4,12.1z M77.9,11.5c0.3,0.3,0.5,0.7,0.5,1.2v3.1c0,0,0,0.1,0,0.1
				c0,0-0.1,0-0.1,0h-0.6c0,0-0.1,0-0.1,0c0,0,0-0.1,0-0.1v-2.9c0-0.3-0.1-0.6-0.3-0.8c-0.2-0.2-0.4-0.3-0.7-0.3
				c-0.3,0-0.5,0.1-0.7,0.2s-0.3,0.4-0.3,0.6v3.1c0,0,0,0.1,0,0.1c0,0-0.1,0-0.1,0h-0.6c0,0-0.1,0-0.1,0c0,0,0-0.1,0-0.1v-4.5
				c0,0,0-0.1,0-0.1c0,0,0.1,0,0.1,0h0.6c0,0,0.1,0,0.1,0c0,0,0,0.1,0,0.1v0.3c0,0,0,0,0,0c0,0,0,0,0,0c0.3-0.3,0.7-0.5,1.2-0.5
				C77.2,11.1,77.6,11.2,77.9,11.5z M82.2,11.9c0,0-0.1,0-0.1,0h-1c0,0,0,0,0,0v2.5c0,0.3,0.1,0.5,0.2,0.6c0.1,0.1,0.3,0.2,0.6,0.2
				H82c0,0,0.1,0,0.1,0c0,0,0,0.1,0,0.1v0.5c0,0.1,0,0.1-0.1,0.2l-0.4,0c-0.5,0-0.8-0.1-1.1-0.3c-0.2-0.2-0.4-0.5-0.4-1v-2.8
				c0,0,0,0,0,0h-0.5c0,0-0.1,0-0.1,0c0,0,0-0.1,0-0.1v-0.5c0,0,0-0.1,0-0.1c0,0,0.1,0,0.1,0h0.5c0,0,0,0,0,0V10c0,0,0-0.1,0-0.1
				c0,0,0.1,0,0.1,0h0.6c0,0,0.1,0,0.1,0c0,0,0,0.1,0,0.1v1.1c0,0,0,0,0,0h1c0,0,0.1,0,0.1,0c0,0,0,0.1,0,0.1v0.5
				C82.2,11.8,82.2,11.8,82.2,11.9L82.2,11.9z M84.2,15.7c-0.3-0.2-0.6-0.6-0.7-1c-0.1-0.3-0.2-0.7-0.2-1.2c0-0.4,0.1-0.8,0.2-1.1
				c0.1-0.4,0.4-0.7,0.7-1s0.8-0.4,1.2-0.4c0.5,0,0.8,0.1,1.2,0.4c0.3,0.2,0.6,0.6,0.7,1c0.1,0.3,0.2,0.7,0.2,1.1
				c0,0.4-0.1,0.8-0.2,1.2c-0.1,0.4-0.4,0.8-0.7,1c-0.3,0.2-0.7,0.4-1.2,0.4C85,16,84.6,15.9,84.2,15.7L84.2,15.7z M86.1,15
				c0.2-0.1,0.3-0.3,0.4-0.6c0.1-0.2,0.1-0.5,0.1-0.9c0-0.4,0-0.6-0.1-0.9c-0.1-0.3-0.2-0.5-0.4-0.6c-0.2-0.1-0.4-0.2-0.7-0.2
				c-0.3,0-0.5,0.1-0.7,0.2c-0.2,0.1-0.3,0.3-0.4,0.6c-0.1,0.2-0.1,0.5-0.1,0.9c0,0.4,0,0.7,0.1,0.9c0.1,0.3,0.2,0.5,0.4,0.6
				c0.2,0.1,0.4,0.2,0.7,0.2C85.7,15.3,85.9,15.2,86.1,15z M91.6,11.2c0.1,0,0.1,0.1,0.1,0.2L91.5,12c0,0.1,0,0.1-0.1,0.1
				c0,0-0.1,0-0.1,0c-0.1,0-0.2,0-0.3,0c-0.1,0-0.1,0-0.1,0c-0.3,0-0.5,0.1-0.7,0.3c-0.2,0.2-0.3,0.4-0.3,0.8v2.7c0,0,0,0.1,0,0.1
				c0,0-0.1,0-0.1,0h-0.6c0,0-0.1,0-0.1,0c0,0,0-0.1,0-0.1v-4.5c0,0,0-0.1,0-0.1c0,0,0.1,0,0.1,0h0.6c0,0,0.1,0,0.1,0
				c0,0,0,0.1,0,0.1v0.4c0,0,0,0,0,0s0,0,0,0c0.3-0.4,0.7-0.6,1.2-0.6C91.2,11.1,91.4,11.1,91.6,11.2L91.6,11.2z"/>
		</g>
		<path class="st8" d="M15.6,14.3c-0.1,0-0.1,0-0.2,0l-3.3-1.5c-0.2-0.1-0.3-0.3-0.2-0.5c0-0.1,0.1-0.2,0.2-0.2l3.3-1.5
			c0.2-0.1,0.4,0,0.5,0.2c0.1,0.2,0,0.4-0.2,0.5l-2.5,1.1l2.5,1.1c0.2,0.1,0.3,0.3,0.2,0.5C15.9,14.2,15.8,14.3,15.6,14.3z"/>
		<path class="st9" d="M11.1,19.6c-3.6,0-6.8-2.4-7.7-5.9c-0.1-0.2,0.1-0.4,0.3-0.5s0.4,0.1,0.5,0.3c0.8,3.1,3.7,5.3,6.9,5.3
			c0.2,0,0.4,0.2,0.4,0.4S11.4,19.6,11.1,19.6L11.1,19.6z"/>
		<path class="st8" d="M9.8,16.5c-0.2,0-0.4-0.2-0.4-0.4V8.8c0-0.2,0.2-0.4,0.4-0.4s0.4,0.2,0.4,0.4v7.3C10.2,16.3,10,16.5,9.8,16.5
			z"/>
		<g>
			<path class="st10" d="M24.2,20.7c-0.1,0-0.2,0-0.3-0.1L22.3,19l-1.7,1.7c-0.1,0.1-0.4,0.1-0.5,0c-0.1-0.1-0.1-0.4,0-0.5l0,0
				l1.9-1.9c0.1-0.1,0.4-0.1,0.5,0c0,0,0,0,0,0l1.9,1.9c0.1,0.1,0.1,0.4,0,0.5C24.4,20.7,24.4,20.7,24.2,20.7z"/>
			<path class="st10" d="M28.1,20.7c-0.1,0-0.2,0-0.3-0.1L26.2,19l-1.7,1.7c-0.1,0.1-0.4,0.1-0.5,0c-0.1-0.1-0.1-0.4,0-0.5l0,0
				l1.9-1.9c0.2-0.1,0.4-0.1,0.5,0l1.9,1.9c0.1,0.1,0.1,0.4,0,0.5C28.3,20.7,28.2,20.7,28.1,20.7z"/>
			<path class="st10" d="M32,20.7c-0.1,0-0.2,0-0.3-0.1L30.1,19l-1.7,1.7c-0.1,0.1-0.4,0.1-0.5,0c-0.1-0.1-0.1-0.4,0-0.5l0,0
				l1.9-1.9c0.1-0.1,0.4-0.1,0.5,0l1.9,1.9c0.1,0.1,0.1,0.4,0,0.5C32.2,20.7,32.1,20.7,32,20.7z"/>
			<path class="st10" d="M35.9,20.7c-0.1,0-0.2,0-0.3-0.1L33.9,19l-1.7,1.7c-0.1,0.1-0.4,0.1-0.5,0c-0.1-0.1-0.1-0.4,0-0.5l0,0
				l1.9-1.9c0.2-0.1,0.4-0.1,0.5,0l1.9,1.9c0.1,0.1,0.1,0.4,0,0.5C36.1,20.7,36,20.7,35.9,20.7z"/>
			<path class="st10" d="M39.7,20.7c-0.1,0-0.2,0-0.3-0.1L37.8,19l-1.7,1.7c-0.1,0.1-0.4,0.1-0.5,0c-0.1-0.1-0.1-0.4,0-0.5l1.9-1.9
				c0.2-0.1,0.4-0.1,0.5,0l1.9,1.9c0.1,0.1,0.1,0.4,0,0.5C39.9,20.7,39.8,20.7,39.7,20.7z"/>
			<g>
				<path class="st10" d="M43.6,20.7c-0.1,0-0.2,0-0.3-0.1L41.7,19L40,20.6c-0.1,0.1-0.4,0.1-0.5,0c-0.1-0.1-0.1-0.4,0-0.5l1.9-1.9
					c0.2-0.1,0.4-0.1,0.5,0l1.9,1.9c0.1,0.1,0.1,0.4,0,0.5C43.8,20.7,43.7,20.7,43.6,20.7z"/>
				<path class="st10" d="M47.5,20.7c-0.1,0-0.2,0-0.3-0.1L45.6,19l-1.7,1.7c-0.1,0.1-0.4,0.1-0.5,0c-0.1-0.1-0.1-0.4,0-0.5l1.9-1.9
					c0.2-0.1,0.4-0.1,0.5,0l1.9,1.9c0.1,0.1,0.1,0.4,0,0.5C47.7,20.7,47.6,20.7,47.5,20.7z"/>
				<path class="st10" d="M51.4,20.7c-0.1,0-0.2,0-0.3-0.1L49.4,19l-1.7,1.7c-0.1,0.1-0.4,0.1-0.5,0c-0.1-0.1-0.1-0.4,0-0.5l1.9-1.9
					c0.1-0.1,0.4-0.1,0.5,0l1.9,1.9c0.1,0.1,0.1,0.4,0,0.5C51.6,20.7,51.5,20.7,51.4,20.7z"/>
				<path class="st10" d="M55.2,20.7c-0.1,0-0.2,0-0.3-0.1L53.3,19l-1.7,1.7c-0.1,0.1-0.4,0.1-0.5,0c-0.1-0.1-0.1-0.4,0-0.5l1.9-1.9
					c0.1-0.1,0.4-0.1,0.5,0c0,0,0,0,0,0l1.9,1.9c0.1,0.1,0.1,0.4,0,0.5C55.4,20.7,55.3,20.7,55.2,20.7z"/>
				<path class="st10" d="M59.1,20.7c-0.1,0-0.2,0-0.3-0.1L57.2,19l-1.7,1.7c-0.1,0.1-0.4,0.1-0.5,0c-0.1-0.1-0.1-0.4,0-0.5l1.9-1.9
					c0.1-0.1,0.4-0.1,0.5,0l1.9,1.9c0.1,0.1,0.1,0.4,0,0.5C59.3,20.7,59.2,20.7,59.1,20.7z"/>
			</g>
		</g>
	</g>
</g>
</svg>
