<?xml version="1.0" encoding="utf-8"?>
<!-- Generator: Adobe Illustrator 24.1.0, SVG Export Plug-In . SVG Version: 6.00 Build 0)  -->
<svg version="1.1" id="Capa_1" xmlns="http://www.w3.org/2000/svg" xmlns:xlink="http://www.w3.org/1999/xlink" x="0px" y="0px"
	 viewBox="0 0 95.5 28" style="enable-background:new 0 0 95.5 28;" xml:space="preserve">
<style type="text/css">
	.st0{fill:#100000;}
	.st1{enable-background:new    ;}
	.st2{fill:none;}
	.st3{fill:#FFFFFF;}
	.st4{display:none;fill:#FFFFFF;}
</style>
<g shape-rendering="crispEdges">
	<rect class="st0" width="95.5" height="28"/>
</g>
<g text-rendering="geometricPrecision">
	<g class="st1">
		<rect x="35.5" y="8.9" class="st2" width="51.5" height="11.7"/>
		<path class="st3" d="M42.9,17.1c-0.3,0.1-0.8,0.3-1.3,0.4c-0.5,0.1-1.1,0.2-1.6,0.2c-1.2,0-2.2-0.3-2.9-1c-0.7-0.7-1-1.6-1-2.8
			c0-1.1,0.4-2,1.1-2.7s1.7-1,3-1c0.5,0,0.9,0,1.4,0.1s0.9,0.3,1.4,0.5v1.7h-0.2c-0.1-0.1-0.2-0.2-0.4-0.3s-0.3-0.2-0.5-0.3
			c-0.2-0.1-0.4-0.2-0.7-0.3s-0.5-0.1-0.8-0.1c-0.3,0-0.6,0-0.9,0.1s-0.5,0.2-0.7,0.4c-0.2,0.2-0.4,0.4-0.5,0.7s-0.2,0.6-0.2,1
			c0,0.8,0.2,1.4,0.6,1.8s1.1,0.6,1.9,0.6c0.1,0,0.2,0,0.2,0s0.2,0,0.2,0v-1.4h-1.5v-1.4h3.4V17.1z"/>
		<path class="st3" d="M49.9,17.5h-4.3v-1.3h1.2v-4.7h-1.2v-1.3h4.3v1.3h-1.2v4.7h1.2V17.5z"/>
		<path class="st3" d="M58.5,11.6h-2.3v5.9h-1.9v-5.9h-2.3v-1.4h6.4V11.6z"/>
		<path class="st3" d="M67.5,17.5h-1.9v-3.2h-2.8v3.2H61v-7.3h1.9v2.7h2.8v-2.7h1.9V17.5z"/>
		<path class="st3" d="M77.2,14.9c0,0.9-0.3,1.6-0.8,2.1s-1.4,0.7-2.4,0.7s-1.9-0.2-2.4-0.7s-0.8-1.2-0.8-2.1v-4.6h1.9v4.5
			c0,0.5,0.1,0.9,0.3,1.1c0.2,0.2,0.6,0.4,1,0.4c0.5,0,0.8-0.1,1-0.4s0.3-0.6,0.3-1.1v-4.5h1.9V14.9z"/>
		<path class="st3" d="M86.5,15.3c0,0.4-0.1,0.7-0.2,0.9s-0.3,0.5-0.6,0.7c-0.3,0.2-0.6,0.4-0.9,0.5s-0.8,0.1-1.3,0.1h-3.2v-7.3h2.8
			c0.6,0,1,0,1.3,0.1s0.5,0.1,0.8,0.3c0.3,0.1,0.5,0.3,0.6,0.6s0.2,0.5,0.2,0.8c0,0.4-0.1,0.7-0.3,0.9s-0.4,0.5-0.8,0.6v0
			c0.5,0.1,0.9,0.3,1.1,0.6S86.5,14.8,86.5,15.3z M84.1,12.3c0-0.1,0-0.2-0.1-0.4s-0.2-0.2-0.3-0.3c-0.1-0.1-0.3-0.1-0.5-0.1
			s-0.5,0-0.9,0h-0.2v1.5h0.3c0.3,0,0.5,0,0.8,0c0.2,0,0.4,0,0.5-0.1c0.2-0.1,0.3-0.2,0.3-0.3C84.1,12.6,84.1,12.4,84.1,12.3z
			 M84.6,15.2c0-0.2,0-0.4-0.1-0.5s-0.2-0.2-0.5-0.3c-0.1,0-0.3-0.1-0.6-0.1s-0.5,0-0.8,0h-0.4v1.8h0.1c0.5,0,0.9,0,1.1,0
			s0.4,0,0.6-0.1c0.2-0.1,0.3-0.2,0.4-0.3C84.5,15.6,84.6,15.4,84.6,15.2z"/>
	</g>
</g>
<g>
	<path class="st4" d="M28.7,24.8c-7.2,0-14.4,0-21.5,0c0-7.2,0-14.4,0-21.5c7.2,0,14.4,0,21.5,0C28.7,10.4,28.7,17.6,28.7,24.8z
		 M19.4,17.8c0.4,0.4,0.5,1,0.5,1.6c0,0.7,0,1.3,0,2c0,0.5,0.2,0.6,0.7,0.5c3.8-1.3,6-5.2,5.2-9.2c-0.8-4.4-5-7.2-9.3-6.5
		c-3.7,0.7-6.5,3.9-6.6,7.7c-0.1,2.9,1.1,5.3,3.5,7c0.6,0.4,1.3,0.8,2,1c0.3,0.1,0.6,0,0.6-0.3c0-0.5,0-1,0-1.5
		c-0.2,0-0.4,0.1-0.6,0.1c-1,0.1-1.9-0.3-2.2-1.2c-0.1-0.4-0.4-0.8-0.8-1c-0.1,0-0.1-0.1-0.2-0.1c-0.2-0.2-0.1-0.3,0.1-0.3
		c0.1,0,0.2,0,0.3,0c0.5,0.1,0.9,0.4,1.1,0.8c0.5,0.8,1.3,1.1,2.2,0.7c0.1,0,0.1-0.1,0.1-0.1c0.1-0.4,0.2-0.7,0.5-1
		c-0.3,0-0.5-0.1-0.7-0.1c-0.8-0.2-1.6-0.5-2.1-1.2c-0.4-0.5-0.6-1.2-0.7-1.9c-0.1-1.1,0-2.1,0.7-2.9c0,0,0-0.1,0-0.2
		c-0.2-0.6-0.1-1.2,0-1.8c0.1-0.3,0.1-0.3,0.5-0.3c0.6,0.1,1.2,0.4,1.7,0.7c0.1,0,0.2,0.1,0.3,0c1.2-0.3,2.5-0.3,3.7,0
		c0.1,0,0.2,0,0.3,0c0.4-0.2,0.7-0.4,1.1-0.6c0.2-0.1,0.5-0.1,0.8-0.2c0.1,0,0.2,0.1,0.2,0.1c0.2,0.6,0.3,1.2,0.1,1.9
		c0,0.1,0,0.2,0.1,0.3c0.3,0.3,0.5,0.7,0.6,1.1c0.2,0.7,0.2,1.4,0.1,2.1c-0.2,1.4-1,2.3-2.3,2.7C20.3,17.7,19.9,17.7,19.4,17.8z"/>
	<path class="st3" d="M19.4,17.8c0.4-0.1,0.8-0.2,1.2-0.3c1.3-0.4,2.1-1.3,2.3-2.7c0.1-0.7,0.1-1.4-0.1-2.1
		c-0.1-0.4-0.3-0.7-0.6-1.1c-0.1-0.1-0.1-0.2-0.1-0.3c0.2-0.6,0.1-1.3-0.1-1.9c0-0.1-0.1-0.1-0.2-0.1c-0.3,0-0.6,0.1-0.8,0.2
		c-0.4,0.2-0.8,0.4-1.1,0.6c-0.1,0-0.2,0.1-0.3,0c-1.2-0.3-2.5-0.3-3.7,0c-0.1,0-0.2,0-0.3,0c-0.5-0.3-1.1-0.6-1.7-0.7
		c-0.3-0.1-0.4,0-0.5,0.3c-0.2,0.6-0.2,1.2,0,1.8c0,0.1,0,0.1,0,0.2c-0.7,0.9-0.8,1.9-0.7,2.9c0.1,0.7,0.3,1.3,0.7,1.9
		c0.6,0.7,1.3,1,2.1,1.2c0.2,0,0.5,0.1,0.7,0.1c-0.3,0.3-0.4,0.6-0.5,1c0,0.1-0.1,0.1-0.1,0.1c-0.9,0.4-1.7,0.1-2.2-0.7
		c-0.3-0.4-0.6-0.7-1.1-0.8c-0.1,0-0.2,0-0.3,0c-0.2,0-0.2,0.2-0.1,0.3c0.1,0.1,0.1,0.1,0.2,0.1c0.4,0.2,0.7,0.6,0.8,1
		c0.3,0.9,1.2,1.3,2.2,1.2c0.2,0,0.4,0,0.6-0.1c0,0.5,0,1,0,1.5c0,0.3-0.3,0.4-0.6,0.3c-0.7-0.2-1.4-0.6-2-1c-2.4-1.7-3.6-4.1-3.5-7
		c0.1-3.8,2.9-7,6.6-7.7c4.3-0.8,8.5,2.1,9.3,6.5c0.8,4-1.5,7.9-5.2,9.2c-0.5,0.2-0.7,0-0.7-0.5c0-0.7,0-1.3,0-2
		C19.9,18.8,19.8,18.3,19.4,17.8z"/>
</g>
</svg>
